<svg xmlns="http://www.w3.org/2000/svg" viewBox="0 0 1000 1000" width="1000" height="1000"><circle cx="500.0" cy="500.0" r="80" fill="none" stroke="white" stroke-width="1" opacity="0.05"/>
<circle cx="500.0" cy="500.0" r="150" fill="none" stroke="white" stroke-width="1" opacity="0.05"/>
<circle cx="500.0" cy="500.0" r="220" fill="none" stroke="white" stroke-width="1" opacity="0.05"/>
<circle cx="500.0" cy="500.0" r="290" fill="none" stroke="white" stroke-width="1" opacity="0.05"/>
<circle cx="500.0" cy="500.0" r="360" fill="none" stroke="white" stroke-width="1" opacity="0.05"/>
<circle cx="500.0" cy="500.0" r="430" fill="none" stroke="white" stroke-width="1" opacity="0.05"/>
<circle cx="500.0" cy="500.0" r="500" fill="none" stroke="white" stroke-width="1" opacity="0.05"/>
<line x1="500.0" y1="500.0" x2="1060.0" y2="500.0" stroke="white" stroke-width="1" opacity="0.045"/>
<line x1="500.0" y1="500.0" x2="1032.6" y2="673.0" stroke="white" stroke-width="1" opacity="0.045"/>
<line x1="500.0" y1="500.0" x2="953.0" y2="829.2" stroke="white" stroke-width="1" opacity="0.045"/>
<line x1="500.0" y1="500.0" x2="829.2" y2="953.0" stroke="white" stroke-width="1" opacity="0.045"/>
<line x1="500.0" y1="500.0" x2="673.0" y2="1032.6" stroke="white" stroke-width="1" opacity="0.045"/>
<line x1="500.0" y1="500.0" x2="500.0" y2="1060.0" stroke="white" stroke-width="1" opacity="0.045"/>
<line x1="500.0" y1="500.0" x2="327.0" y2="1032.6" stroke="white" stroke-width="1" opacity="0.045"/>
<line x1="500.0" y1="500.0" x2="170.8" y2="953.0" stroke="white" stroke-width="1" opacity="0.045"/>
<line x1="500.0" y1="500.0" x2="47.0" y2="829.2" stroke="white" stroke-width="1" opacity="0.045"/>
<line x1="500.0" y1="500.0" x2="-32.6" y2="673.0" stroke="white" stroke-width="1" opacity="0.045"/>
<line x1="500.0" y1="500.0" x2="-60.0" y2="500.0" stroke="white" stroke-width="1" opacity="0.045"/>
<line x1="500.0" y1="500.0" x2="-32.6" y2="327.0" stroke="white" stroke-width="1" opacity="0.045"/>
<line x1="500.0" y1="500.0" x2="47.0" y2="170.8" stroke="white" stroke-width="1" opacity="0.045"/>
<line x1="500.0" y1="500.0" x2="170.8" y2="47.0" stroke="white" stroke-width="1" opacity="0.045"/>
<line x1="500.0" y1="500.0" x2="327.0" y2="-32.6" stroke="white" stroke-width="1" opacity="0.045"/>
<line x1="500.0" y1="500.0" x2="500.0" y2="-60.0" stroke="white" stroke-width="1" opacity="0.045"/>
<line x1="500.0" y1="500.0" x2="673.0" y2="-32.6" stroke="white" stroke-width="1" opacity="0.045"/>
<line x1="500.0" y1="500.0" x2="829.2" y2="47.0" stroke="white" stroke-width="1" opacity="0.045"/>
<line x1="500.0" y1="500.0" x2="953.0" y2="170.8" stroke="white" stroke-width="1" opacity="0.045"/>
<line x1="500.0" y1="500.0" x2="1032.6" y2="327.0" stroke="white" stroke-width="1" opacity="0.045"/>
<line x1="648.6" y1="520.1" x2="617.9" y2="592.7" stroke="white" stroke-width="1" opacity="0.05"/>
<line x1="617.9" y1="592.7" x2="545.8" y2="642.8" stroke="white" stroke-width="1" opacity="0.05"/>
<line x1="545.8" y1="642.8" x2="412.8" y2="622.1" stroke="white" stroke-width="1" opacity="0.05"/>
<line x1="412.8" y1="622.1" x2="366.3" y2="568.0" stroke="white" stroke-width="1" opacity="0.05"/>
<line x1="366.3" y1="568.0" x2="360.4" y2="445.2" stroke="white" stroke-width="1" opacity="0.05"/>
<line x1="360.4" y1="445.2" x2="441.5" y2="361.9" stroke="white" stroke-width="1" opacity="0.05"/>
<line x1="441.5" y1="361.9" x2="513.3" y2="350.6" stroke="white" stroke-width="1" opacity="0.05"/>
<line x1="513.3" y1="350.6" x2="602.1" y2="390.1" stroke="white" stroke-width="1" opacity="0.05"/>
<line x1="602.1" y1="390.1" x2="648.6" y2="520.1" stroke="white" stroke-width="1" opacity="0.05"/>
<line x1="718.2" y1="471.7" x2="692.5" y2="606.5" stroke="white" stroke-width="1" opacity="0.05"/>
<line x1="692.5" y1="606.5" x2="572.7" y2="707.6" stroke="white" stroke-width="1" opacity="0.05"/>
<line x1="572.7" y1="707.6" x2="411.9" y2="701.6" stroke="white" stroke-width="1" opacity="0.05"/>
<line x1="411.9" y1="701.6" x2="337.7" y2="648.5" stroke="white" stroke-width="1" opacity="0.05"/>
<line x1="337.7" y1="648.5" x2="280.8" y2="518.2" stroke="white" stroke-width="1" opacity="0.05"/>
<line x1="280.8" y1="518.2" x2="327.1" y2="364.0" stroke="white" stroke-width="1" opacity="0.05"/>
<line x1="327.1" y1="364.0" x2="460.6" y2="283.5" stroke="white" stroke-width="1" opacity="0.05"/>
<line x1="460.6" y1="283.5" x2="572.8" y2="292.4" stroke="white" stroke-width="1" opacity="0.05"/>
<line x1="572.8" y1="292.4" x2="673.9" y2="365.2" stroke="white" stroke-width="1" opacity="0.05"/>
<line x1="673.9" y1="365.2" x2="718.2" y2="471.7" stroke="white" stroke-width="1" opacity="0.05"/>
<line x1="787.3" y1="460.7" x2="681.9" y2="725.9" stroke="white" stroke-width="1" opacity="0.05"/>
<line x1="681.9" y1="725.9" x2="518.3" y2="789.4" stroke="white" stroke-width="1" opacity="0.05"/>
<line x1="518.3" y1="789.4" x2="317.9" y2="725.7" stroke="white" stroke-width="1" opacity="0.05"/>
<line x1="317.9" y1="725.7" x2="211.9" y2="533.2" stroke="white" stroke-width="1" opacity="0.05"/>
<line x1="211.9" y1="533.2" x2="283.5" y2="307.1" stroke="white" stroke-width="1" opacity="0.05"/>
<line x1="283.5" y1="307.1" x2="527.5" y2="211.3" stroke="white" stroke-width="1" opacity="0.05"/>
<line x1="527.5" y1="211.3" x2="684.5" y2="276.3" stroke="white" stroke-width="1" opacity="0.05"/>
<line x1="684.5" y1="276.3" x2="787.3" y2="460.7" stroke="white" stroke-width="1" opacity="0.05"/>
<line x1="859.7" y1="486.2" x2="750.9" y2="758.2" stroke="white" stroke-width="1" opacity="0.05"/>
<line x1="750.9" y1="758.2" x2="547.1" y2="856.9" stroke="white" stroke-width="1" opacity="0.05"/>
<line x1="547.1" y1="856.9" x2="281.2" y2="785.9" stroke="white" stroke-width="1" opacity="0.05"/>
<line x1="281.2" y1="785.9" x2="141.4" y2="531.7" stroke="white" stroke-width="1" opacity="0.05"/>
<line x1="141.4" y1="531.7" x2="259.6" y2="232.0" stroke="white" stroke-width="1" opacity="0.05"/>
<line x1="259.6" y1="232.0" x2="492.2" y2="140.1" stroke="white" stroke-width="1" opacity="0.05"/>
<line x1="492.2" y1="140.1" x2="740.0" y2="231.7" stroke="white" stroke-width="1" opacity="0.05"/>
<line x1="740.0" y1="231.7" x2="859.7" y2="486.2" stroke="white" stroke-width="1" opacity="0.05"/>
<line x1="929.6" y1="482.1" x2="865.9" y2="725.8" stroke="white" stroke-width="1" opacity="0.05"/>
<line x1="865.9" y1="725.8" x2="671.5" y2="894.3" stroke="white" stroke-width="1" opacity="0.05"/>
<line x1="671.5" y1="894.3" x2="333.3" y2="896.4" stroke="white" stroke-width="1" opacity="0.05"/>
<line x1="333.3" y1="896.4" x2="186.5" y2="794.3" stroke="white" stroke-width="1" opacity="0.05"/>
<line x1="186.5" y1="794.3" x2="70.8" y2="525.8" stroke="white" stroke-width="1" opacity="0.05"/>
<line x1="70.8" y1="525.8" x2="151.8" y2="247.8" stroke="white" stroke-width="1" opacity="0.05"/>
<line x1="151.8" y1="247.8" x2="348.1" y2="97.7" stroke="white" stroke-width="1" opacity="0.05"/>
<line x1="348.1" y1="97.7" x2="626.6" y2="89.1" stroke="white" stroke-width="1" opacity="0.05"/>
<line x1="626.6" y1="89.1" x2="856.0" y2="258.8" stroke="white" stroke-width="1" opacity="0.05"/>
<line x1="856.0" y1="258.8" x2="929.6" y2="482.1" stroke="white" stroke-width="1" opacity="0.05"/></svg>